<?xml version="1.0" encoding="UTF-8"?>
<!DOCTYPE svg PUBLIC "-//W3C//DTD SVG 1.1//EN" "http://www.w3.org/Graphics/SVG/1.1/DTD/svg11.dtd">
<svg width="717px" height="431px" viewBox="0 0 717 431" version="1.1" xmlns="http://www.w3.org/2000/svg" xmlns:xlink="http://www.w3.org/1999/xlink">
    <!-- Generator: Sketch 52.3 (67297) - http://www.bohemiancoding.com/sketch -->
    <title>unisalle</title>
    <desc>Created with Sketch.</desc>
    <g id="///Principal-Pages-//-LA-SALLE" stroke="none" stroke-width="1" fill="none" fill-rule="evenodd" opacity="0.5">
        <g id="01_LASALLE_HOME-HD" transform="translate(-2.000000, -389.000000)" fill-rule="nonzero">
            <g id="unisalle" transform="translate(0.000000, 387.000000)">
                <path d="M262.216216,369.752809 C261.243243,405.755056 288,405.511798 299.675676,403.322472 C327.162162,397.970787 367.054054,352.967978 367.783784,352.967978 C382.621622,403.079213 391.864865,406.72809 401.837838,403.079213 C422.027027,395.538202 392.594595,324.993258 387.486486,318.668539 C382.378378,312.34382 374.594595,299.93764 338.837838,333.264045 L351,345.913483 C353.675676,348.589326 353.675676,352.724719 348.081081,352.238202 L328.135135,349.805618 C326.675676,351.994944 308.675676,370.969101 307.216216,373.158427 C305.756757,375.347753 298.702703,376.564045 298.945946,372.428652 C299.189189,368.293258 306.72973,350.292135 306.72973,346.886517 C306.72973,343.480899 291.891892,347.616292 289.945946,346.643258 C288.867836,346.052817 288.159464,344.959185 288.061442,343.733837 C287.963421,342.508489 288.488926,341.316141 289.459459,340.561798 C293.594595,337.399438 301.621622,331.074719 306.486486,327.669101 C306.72973,321.58764 306.972973,310.641011 306.972973,310.641011 C307.216216,306.505618 309.891892,304.802809 312.810811,307.72191 L324.972973,318.668539 C374.108108,285.828652 391.621622,305.775843 394.783784,307.478652 C397.945946,309.181461 407.432432,311.127528 411.567568,303.586517 C415.236911,297.580412 413.520611,289.749305 407.675676,285.828652 C386.756757,269.04382 345.648649,270.016854 312.081081,291.423596 C288,306.748876 262.945946,341.534831 262.216216,369.752809" id="Path" fill="#fff8e170"></path>
                <path d="M271.216216,251.042697 C267.081081,241.798876 252.486486,234.014607 211.864865,246.420787 C205.783784,248.366854 158.837838,269.04382 158.837838,294.099438 C158.837838,325.966292 219.891892,326.452809 219.891892,349.56236 C219.891892,367.563483 206.756757,379.726404 200.432432,385.07809 C181.945946,400.646629 151.540541,406.241573 161.513514,426.188764 C167.837838,439.324719 188.027027,429.351124 192.405405,426.432022 C246.891892,393.348876 248.351351,356.373596 248.351351,350.292135 C248.351351,306.019101 192.162162,302.370225 192.162162,292.396629 C192.162162,290.207303 194.351351,287.531461 198.72973,284.855618 C236.918919,259.556742 255.648649,270.016854 259.783784,270.503371 C268.054054,271.476404 273.405405,256.63764 271.216216,251.042697" id="Path" fill="#fff8e170"></path>
                <path d="M646.540541,317.452247 C636.567568,331.074719 621,340.561798 607.378378,348.102809 C613.459459,285.098876 674.27027,278.530899 646.540541,317.452247 M701.027027,356.130337 C696.891892,357.589888 634.378378,385.564607 610.297297,373.644944 C631.316642,363.101574 650.13787,348.654553 665.756757,331.074719 C695.189189,297.991573 677.189189,259.8 638.513514,269.530337 C634.621622,270.503371 589.621622,282.179775 577.459459,361.482022 C563.351351,367.320225 546.324324,374.374719 540,375.104494 C533.675676,375.83427 530.027027,371.942135 531,355.400562 C534.162162,283.882584 557.513514,198.498876 558.486486,193.876966 C562.864865,174.416292 533.918919,169.794382 528.810811,187.552247 C523.702703,205.310112 515.675676,248.853371 507.891892,290.207303 C505.216216,304.316292 498.405405,337.885955 500.594595,364.644382 C490.621622,368.536517 477.243243,373.888202 466.054054,375.104494 C462.162162,375.104494 456.324324,371.942135 457.054054,355.400562 C460.216216,283.882584 483.567568,198.498876 484.783784,193.876966 C488.918919,174.416292 459.972973,169.794382 454.864865,187.552247 C449.756757,205.310112 441.972973,248.853371 433.945946,290.207303 C429.810811,312.34382 415.702703,381.91573 441,398.214045 C454.135135,406.72809 471.162162,403.808989 477.972973,402.10618 C480.405405,401.619663 495.486486,396.511236 508.378378,391.646067 C533.432432,417.917978 584.513514,387.997191 584.513514,387.997191 C611.27027,425.945506 702.243243,386.294382 713.189189,379.483146 C724.135135,372.67191 716.108108,351.265169 701.027027,356.130337" id="Shape" fill="#fff8e170"></path>
                <path d="M171.243243,99.7359551 C177.567568,9.24382022 165.162162,-2.18932584 146.189189,3.6488764 C143.513514,4.62191011 135.972973,9.24382022 138.405405,21.8932584 C138.648649,23.352809 154.702703,71.0314607 130.378378,151.063483 C124.540541,169.794382 97.2972973,209.202247 65.6756757,209.202247 C34.0540541,209.202247 31.8648649,153.252809 31.8648649,143.522472 C31.8756633,132.701373 32.6070111,121.893004 34.0540541,111.169101 C35.7567568,100.222472 43.0540541,58.6252809 44.2702703,48.408427 C45.4864865,38.191573 36.4864865,31.8668539 32.5945946,31.3803371 C20.6756757,30.1640449 17.7567568,35.2724719 15.5675676,44.0297753 C7.54054054,75.1668539 1.94594595,129.413483 2.43243243,148.38764 C3.89189189,193.876966 22.1351351,238.636517 64.4594595,238.636517 C98.027027,238.636517 128.189189,213.580899 147.891892,180.497753 C162.72973,155.442135 169.297297,125.521348 171.243243,99.7359551" id="Path" fill="#fff8e170"></path>
                <path d="M185.837838,224.527528 C214.540541,220.392135 257.108108,152.036517 267.324324,152.036517 C277.540541,152.036517 276.081081,208.229213 301.135135,223.311236 C307.945946,227.203371 331.540541,224.527528 316.945946,197.769101 C299.189189,165.658989 299.675676,119.439888 271.459459,119.439888 C243.243243,119.439888 224.027027,162.983146 201.891892,182.200562 C201.891892,182.200562 214.297297,140.360112 216.972973,114.817978 C218.918919,98.0331461 192.405405,94.8707865 189.72973,112.385393 C181.945946,163.226404 169.540541,187.308989 169.783784,209.202247 C170.027027,226.716854 184.621622,224.527528 185.837838,224.527528" id="Path" fill="#fff8e170"></path>
                <path d="M345.405405,218.689326 C350.996534,222.170795 357.580153,223.709919 364.135135,223.067978 C377.756757,221.851685 394.783784,214.310674 401.108108,211.87809 C421.297297,203.607303 411.810811,178.551685 389.189189,188.525281 C381.909602,191.349425 374.429357,193.626163 366.810811,195.336517 C363.153023,195.791759 359.761432,193.353901 359.027027,189.741573 C352.459459,168.091573 360.972973,142.30618 361.216216,133.548876 C361.216216,120.899438 345.162162,115.547753 336.648649,127.467416 C333.72973,131.602809 317.675676,199.228652 345.405405,218.689326" id="Path" fill="#fff8e170"></path>
                <path d="M372.891892,86.8432584 C371.749033,97.3340123 362.890008,105.280793 352.337838,105.280793 C341.785667,105.280793 332.926643,97.3340123 331.783784,86.8432584 C330.925596,78.9656122 334.644794,71.2903773 341.359206,67.0826536 C348.073617,62.8749299 356.602059,62.8749299 363.31647,67.0826536 C370.030882,71.2903773 373.75008,78.9656122 372.891892,86.8432584" id="Path" fill="#fff8e170"></path>
            </g>
        </g>
    </g>
</svg>