<?xml version="1.0" encoding="utf-8"?>
<!-- Generator: Adobe Illustrator 22.1.0, SVG Export Plug-In . SVG Version: 6.00 Build 0)  -->
<svg version="1.1" id="Capa_1" xmlns="http://www.w3.org/2000/svg" xmlns:xlink="http://www.w3.org/1999/xlink" x="0px" y="0px"
	 viewBox="0 0 639.2 175.8" style="enable-background:new 0 0 639.2 175.8;" xml:space="preserve">
<style type="text/css">
	.st0{fill:#FFFFFF;}
	.st1{fill:#E2A615;}
</style>
<g>
	<path class="st0" d="M79.7,169h22.4l7.9-18.2h43.9l7.9,18.2h22.4L131.9,58.3L79.7,169z M118.1,132.3l13.8-31.2l13.8,31.2
		L118.1,132.3z"/>
	<polygon class="st0" points="638.3,79.5 638.3,58.3 565.8,58.3 565.8,169 638.3,169 638.3,147.3 589.6,147.3 589.6,122.5 
		630.3,122.5 630.3,101.3 589.6,101.3 589.6,79.5 	"/>
	<polygon class="st0" points="509.9,58.3 486.1,58.3 486.1,147.3 486.1,169 509.9,169 555.7,169 555.7,147.3 509.9,147.3 	"/>
	<polygon class="st0" points="430.2,58.3 406.5,58.3 406.5,147.3 406.5,169 430.2,169 476.1,169 476.1,147.3 430.2,147.3 	"/>
	<polygon class="st0" points="23.8,58.3 0,58.3 0,147.3 0,169 23.8,169 69.6,169 69.6,147.3 23.8,147.3 	"/>
	<path class="st0" d="M254.7,102.1c-14.3-3.2-20.9-4.5-20.9-13.6c0-9,10-10.9,16.8-10.9c6.8,0,16.6,0.9,25.8,8.8l11.3-17.9
		c0,0-11.9-11.5-36.7-11.5c-24.9,0-39.7,14.9-39.7,34.1c0,19,13.8,27.8,37.3,32.4c19.6,3.9,20.5,8.1,20.5,14.7
		c0,6.6-10.4,11.2-20.9,11.2c-13.2,0-27.1-12.7-27.1-12.7L208.1,155c0,0,14.1,15.1,41.1,15.1c26.9,0,42-12.6,42-36.4
		C291.2,110,269,105.3,254.7,102.1z"/>
	<polygon class="st1" points="344.2,58.3 334.1,79.2 338.6,102.5 362.1,105.5 341.3,116.9 345.8,140.2 328.4,124 307.7,135.5 
		291.9,169 314.3,169 322.1,150.8 366.2,150.8 374,169 396.4,169 	"/>
	<g>
		<g>
			<path class="st0" d="M27.2,21.6c0,6.9-5.6,13-13.6,13c-8,0-13.6-6.1-13.6-13V0.5h4.2v20.7c0,5.3,4.2,9.5,9.4,9.5
				c5.2,0,9.4-4.2,9.4-9.5V0.5h4.2V21.6z"/>
			<path class="st0" d="M59.8,0.5H64v33.7h-4.7L41.3,7v27.2h-4.1V0.5h4.7l17.9,27.2V0.5z"/>
			<path class="st0" d="M78.4,34.2h-4.1V0.5h4.1V34.2z"/>
			<path class="st0" d="M99.6,34.2L85.8,0.5h4.3l11.8,28.3l11.8-28.3h4.3l-13.8,33.8H99.6z"/>
			<path class="st0" d="M129.2,4.3v10.5h15.5v3.9h-15.5v11.6h16.1v3.9H125V0.5h19.9v3.9H129.2z"/>
			<path class="st0" d="M164.9,0.4c6.5,0,10.3,4,10.3,9.7c0,5.1-3.1,8.7-8.1,9.5l9.5,14.6h-4.9l-9.3-14.4h-5.2v14.4h-4.1V0.4H164.9z
				 M157.3,15.8h7.5c3.8,0,6.3-2.3,6.3-5.7c0-3.4-2.8-5.7-6.3-5.7h-7.5V15.8z"/>
			<path class="st0" d="M192.2,18.2c-4.7-1.3-8.5-4-8.5-8.9c0-6.1,4.8-9.3,10-9.3c2.9,0,6,1.1,8.2,3.2l-2.5,2.8
				c-1.7-1.5-3.7-2.2-5.7-2.1c-3,0.1-5.7,1.9-5.7,5.2c0,2.9,2,4.5,5.9,5.7l2.5,0.8c4.3,1.4,7.7,4.3,7.7,9.6c0,5.9-5,9.4-10.6,9.5
				c-3.6,0-7.5-1.4-10.3-4.3l2.5-3c2.3,2.5,5.2,3.4,7.7,3.3c3.6-0.1,6.5-2.3,6.5-5.5c0-3.3-2-5-5.5-6.2L192.2,18.2z"/>
			<path class="st0" d="M216.2,34.2h-4.1V0.5h4.1V34.2z"/>
			<path class="st0" d="M238.7,0.5c9.6,0,17.4,7.6,17.4,16.9c0,9.3-7.8,16.9-17.4,16.9h-12.1V0.5L238.7,0.5z M230.7,30.2h8
				c7.3,0,13.2-5.8,13.2-12.8c0-7-5.9-12.8-13.2-12.8h-8V30.2z"/>
			<path class="st0" d="M286.6,34.2l-4.1-9.6h-15.6l-4.1,9.6h-4.4l14-33.8h4.5l14,33.8H286.6z M280.9,20.5l-6.1-15l-6.2,15H280.9z"
				/>
			<path class="st0" d="M310.5,0.5c9.6,0,17.4,7.6,17.4,16.9c0,9.3-7.8,16.9-17.4,16.9h-12.1V0.5L310.5,0.5z M302.5,30.2h8
				c7.4,0,13.2-5.8,13.2-12.8c0-7-5.9-12.8-13.2-12.8h-8V30.2z"/>
			<path class="st0" d="M361.2,0.5c9.6,0,17.4,7.6,17.4,16.9c0,9.3-7.8,16.9-17.4,16.9H349V0.5L361.2,0.5z M353.2,30.2h8
				c7.3,0,13.2-5.8,13.2-12.8c0-7-5.9-12.8-13.2-12.8h-8V30.2z"/>
			<path class="st0" d="M389.7,4.3v10.5h15.5v3.9h-15.5v11.6h16.1v3.9h-20.2V0.5h19.9v3.9H389.7z"/>
		</g>
	</g>
</g>
</svg>
