<svg id="Capa_1" data-name="Capa 1" xmlns="http://www.w3.org/2000/svg" viewBox="0 0 591.3 157.56"><defs><style>.cls-1{fill:#0a3356;}.cls-2{fill:#e2a615;}</style></defs><title>Logo_Universidad-de-La-Salle</title><path class="cls-1" d="M181.84,373.77h20.74l7.35-16.86h40.66l7.35,16.86H278.7l-48.43-102.5Zm35.64-34,12.79-28.88L243,339.76Z" transform="translate(-108.04 -217.24)"/><polygon class="cls-1" points="591.3 73.69 591.3 54.03 524.13 54.03 524.13 156.53 591.3 156.53 591.3 136.47 546.16 136.47 546.16 113.51 583.87 113.51 583.87 93.86 546.16 93.86 546.16 73.69 591.3 73.69"/><polygon class="cls-1" points="472.37 54.03 450.33 54.03 450.33 136.47 450.33 156.53 472.37 156.53 514.83 156.53 514.83 136.47 472.37 136.47 472.37 54.03"/><polygon class="cls-1" points="398.57 54.03 376.54 54.03 376.54 136.47 376.54 156.53 398.57 156.53 441.04 156.53 441.04 136.47 398.57 136.47 398.57 54.03"/><polygon class="cls-1" points="22.04 54.03 0 54.03 0 136.47 0 156.53 22.04 156.53 64.5 156.53 64.5 136.47 22.04 136.47 22.04 54.03"/><path class="cls-1" d="M344,311.8c-13.26-3-19.37-4.19-19.37-12.57s9.25-10.11,15.53-10.11,15.36.87,23.91,8.19l10.47-16.57s-11-10.64-34-10.64-36.81,13.78-36.81,31.58c0,17.62,12.82,25.74,34.54,30,18.19,3.57,19,7.5,19,13.6s-9.59,10.37-19.36,10.38c-12.22,0-25.13-11.77-25.13-11.77l-11.87,16.93s13.09,14,38,14,38.91-11.71,38.91-33.69S357.21,314.76,344,311.8Z" transform="translate(-108.04 -217.24)"/><polygon class="cls-2" points="318.82 54.03 309.54 73.38 313.65 94.96 335.46 97.71 316.19 108.3 320.3 129.91 304.27 114.86 285.06 125.48 270.38 156.53 291.12 156.53 298.42 139.68 339.25 139.68 346.49 156.53 367.24 156.53 318.82 54.03"/><path class="cls-1" d="M133.28,237.26a12.62,12.62,0,0,1-25.21,0v-19.6H112V236.8a8.71,8.71,0,1,0,17.42,0V217.66h3.89Z" transform="translate(-108.04 -217.24)"/><path class="cls-1" d="M163.45,217.66h3.85v31.26h-4.38L146.3,223.74v25.19h-3.84V217.66h4.39l16.6,25.15Z" transform="translate(-108.04 -217.24)"/><path class="cls-1" d="M180.65,248.93h-3.84V217.66h3.84Z" transform="translate(-108.04 -217.24)"/><path class="cls-1" d="M200.35,248.93l-12.8-31.27h4l10.94,26.17,10.94-26.17h4l-12.8,31.27Z" transform="translate(-108.04 -217.24)"/><path class="cls-1" d="M227.69,221.25V231h14.37v3.59H227.69v10.77h14.88v3.58H223.85V217.66h18.46v3.59Z" transform="translate(-108.04 -217.24)"/><path class="cls-1" d="M260.8,217.64c6,0,9.56,3.66,9.56,9a8.43,8.43,0,0,1-7.5,8.78l8.77,13.52h-4.5l-8.59-13.3H253.7v13.3h-3.81V217.64Zm-7.07,14.25h7c3.55,0,5.83-2.15,5.83-5.26s-2.57-5.25-5.8-5.25h-7Z" transform="translate(-108.04 -217.24)"/><path class="cls-1" d="M286.06,234.06c-4.34-1.25-7.88-3.74-7.88-8.22,0-5.66,4.46-8.65,9.22-8.6a11.09,11.09,0,0,1,7.6,3l-2.36,2.61a7.47,7.47,0,0,0-5.24-1.94c-2.8.09-5.26,1.8-5.26,4.79,0,2.64,1.87,4.15,5.47,5.24l2.32.73c4,1.27,7.13,4,7.13,8.87,0,5.48-4.59,8.71-9.78,8.76a13.11,13.11,0,0,1-9.55-4l2.35-2.74a9.32,9.32,0,0,0,7.16,3.09c3.29-.1,6.06-2.1,6.06-5.1s-1.9-4.63-5.07-5.73Z" transform="translate(-108.04 -217.24)"/><path class="cls-1" d="M308.36,248.93h-3.84V217.66h3.84Z" transform="translate(-108.04 -217.24)"/><path class="cls-1" d="M329.13,217.66a15.64,15.64,0,1,1,0,31.27H317.87V217.66Zm-7.42,27.52h7.42a11.89,11.89,0,1,0,0-23.76h-7.42Z" transform="translate(-108.04 -217.24)"/><path class="cls-1" d="M373.53,248.93l-3.76-8.9H355.33l-3.75,8.9h-4.06l12.94-31.27h4.19l12.93,31.27Zm-5.28-12.74-5.68-13.9-5.71,13.9Z" transform="translate(-108.04 -217.24)"/><path class="cls-1" d="M395.7,217.66a15.64,15.64,0,1,1,0,31.27H384.44V217.66Zm-7.42,27.52h7.42a11.89,11.89,0,1,0,0-23.76h-7.42Z" transform="translate(-108.04 -217.24)"/><path class="cls-1" d="M442.63,217.66a15.64,15.64,0,1,1,0,31.27H431.38V217.66Zm-7.42,27.52h7.42a11.89,11.89,0,1,0,0-23.76h-7.42Z" transform="translate(-108.04 -217.24)"/><path class="cls-1" d="M469.08,221.25V231h14.37v3.59H469.08v10.77H484v3.58H465.23V217.66H483.7v3.59Z" transform="translate(-108.04 -217.24)"/></svg>